<?xml version="1.0" encoding="utf-8"?>
<!-- Generator: Adobe Illustrator 22.0.1, SVG Export Plug-In . SVG Version: 6.00 Build 0)  -->
<svg version="1.1" id="Layer_1" xmlns="http://www.w3.org/2000/svg" xmlns:xlink="http://www.w3.org/1999/xlink" x="0px" y="0px"
	 viewBox="0 0 1000 1000" style="enable-background:new 0 0 1000 1000;" xml:space="preserve">
<style type="text/css">
	.st0{fill:#B7B7B7;}
</style>
<g>
	<g>
		<path class="st0" d="M824.5,521.2l-57.2-41.4v-59.2c0-3.3-2.7-6.1-6.1-6.1H615.5V288.8c0-63.7-51.8-115.5-115.5-115.5
			s-115.5,51.8-115.5,115.5v125.7H238.7c-3.3,0-6.1,2.7-6.1,6.1v59.2l-57.2,41.4c-1.9,1.4-2.9,3.8-2.4,6.2l59.7,283.7
			c0.1,0.4,0.2,0.7,0.3,1.1c0,0.1,0.1,0.2,0.2,0.3c0.1,0.2,0.2,0.5,0.4,0.7c0.1,0.1,0.1,0.2,0.2,0.3c0.1,0.2,0.3,0.4,0.5,0.5
			c0.1,0.1,0.2,0.2,0.3,0.3c0.2,0.1,0.3,0.3,0.5,0.4c0.1,0.1,0.2,0.2,0.4,0.2c0.2,0.1,0.4,0.2,0.6,0.3c0.1,0.1,0.3,0.1,0.4,0.2
			c0.2,0.1,0.5,0.2,0.8,0.2c0.1,0,0.2,0,0.3,0.1c0.4,0.1,0.7,0.1,1.2,0.1h522.5c0.4,0,0.8,0,1.1-0.1c0.1,0,0.2,0,0.3-0.1
			c0.2-0.1,0.5-0.1,0.7-0.2c0.1,0,0.2-0.1,0.4-0.2c0.2-0.1,0.4-0.2,0.6-0.3c0.1-0.1,0.3-0.2,0.4-0.3c0.2-0.1,0.3-0.3,0.5-0.4
			c0.1-0.1,0.2-0.2,0.3-0.3c0.2-0.2,0.3-0.3,0.5-0.6l0.2-0.2c0.1-0.2,0.3-0.4,0.4-0.7c0-0.1,0.1-0.2,0.1-0.3
			c0.1-0.3,0.3-0.7,0.3-1.1l59.7-283.7C827.4,525,826.4,522.6,824.5,521.2z M232.7,494.7v256.9l-46.9-222.9L232.7,494.7z
			 M814.2,528.7l-46.9,222.9V494.7L814.2,528.7z M755.2,426.6v377.2h-90V426.6H755.2z M384.6,520v-39.8h45.7V520H384.6z M569.7,520
			v-39.8h45.7V520H569.7z M396.6,544.8v-12.7h22.5v12.7H396.6z M580.9,544.8v-12.7h22.5v12.7H580.9z M384.5,468.1h-5.9
			c-3.3,0-6.1,2.7-6.1,6.1v51.9c0,3.3,2.7,6.1,6.1,6.1h5.9v18.8c0,3.3,2.7,6.1,6.1,6.1h34.6c3.3,0,6.1-2.7,6.1-6.1v-18.8h5.2
			c3.3,0,6.1-2.7,6.1-6.1v-51.9c0-3.3-2.7-6.1-6.1-6.1h-5.2v-41.5h137.5v41.5h-5.2c-3.3,0-6.1,2.7-6.1,6.1v51.9
			c0,3.3,2.7,6.1,6.1,6.1h5.2v18.8c0,3.3,2.7,6.1,6.1,6.1h34.6c3.3,0,6.1-2.7,6.1-6.1v-18.8h5.9c3.3,0,6.1-2.7,6.1-6.1v-51.9
			c0-3.3-2.7-6.1-6.1-6.1h-5.9v-41.5h37.6v377.2H346.9V426.6h37.6V468.1z M500,185.4c57,0,103.4,46.4,103.4,103.4v179.3h-22.5V288.8
			c0-44.6-36.3-80.9-80.9-80.9c-44.6,0-80.9,36.3-80.9,80.9v179.3h-22.5V288.8C396.6,231.8,443,185.4,500,185.4z M500,220
			c37.9,0,68.8,30.9,68.8,68.8v125.7H431.2V288.8C431.2,250.9,462.1,220,500,220z M334.8,426.6v377.2h-90V426.6H334.8z M766,811.8
			L766,811.8L766,811.8L766,811.8z"/>
		<path class="st0" d="M467.1,488.9h65.7c3.3,0,6.1-2.7,6.1-6.1v-29.4c0-3.3-2.7-6.1-6.1-6.1h-65.7c-3.3,0-6.1,2.7-6.1,6.1v29.4
			C461.1,486.2,463.8,488.9,467.1,488.9z M473.2,476.8v-17.3h53.6v17.3H473.2z"/>
	</g>
</g>
</svg>
