<?xml version="1.0" encoding="utf-8"?>
<!-- Generator: Adobe Illustrator 22.0.1, SVG Export Plug-In . SVG Version: 6.00 Build 0)  -->
<svg version="1.1" id="Layer_1" xmlns="http://www.w3.org/2000/svg" xmlns:xlink="http://www.w3.org/1999/xlink" x="0px" y="0px"
	 viewBox="0 0 1000 1000" style="enable-background:new 0 0 1000 1000;" xml:space="preserve">
<style type="text/css">
	.st0{fill:#B7B7B7;}
</style>
<g>
	<path class="st0" d="M826.2,405.1c-26.3-52.8-77.7-146.8-103.8-164.5C689.9,218.4,607.8,183.4,607,183l-1.2-0.5l-1.3,0.2h-0.2
		c-7.2,1.4-71.2,13.2-104.6,13.2s-97.4-11.9-104.6-13.2H395l-1.3-0.3l-1.2,0.5c-0.8,0.4-82.9,35.4-115.4,57.5
		c-26.1,17.8-77.5,111.8-103.7,164.5l-0.8,1.6l0.6,1.7c0.1,0.2,5,13.3,21.1,27.9c21.3,19.3,52.4,32.1,89.8,37.1l2.5,0.3l26.1-36.3
		l9.7-13.5l3.9-5.4l1.2,6.6l2.9,16.4c13.4,76.5-5.2,256.7-29.3,345l-1,3.7l3.6,1.3c2,0.7,50.6,17.9,196.1,17.9
		c145.9,0,194.1-17.2,196.1-17.9l3.6-1.3l-1-3.7c-24.1-88.4-42.7-268.6-29.3-345l2.9-16.4l1.2-6.6l3.9,5.4l9.7,13.5l26.1,36.3
		l2.5-0.3c37.5-5,68.6-17.8,89.9-37.1c15.9-14.4,20.9-27.3,21.1-27.9l0.6-1.7L826.2,405.1z M406.3,193.5l12.8,2.1
		c24.6,4.1,58.6,8.9,80.7,8.9c22.1,0,56.1-4.8,80.7-8.9l12.8-2.1l5.1-0.8l-2.1,4.7l-5.3,11.9c-6.7,15.2-17.2,38.3-28.9,62
		c-32.4,66-49,85.9-56,91.9l-4.6,3.9l-1.8,1.6L498,367l-4.6-3.9c-7-6-23.5-25.8-56-91.9c-11.7-23.7-22.1-46.8-28.9-62l-5.3-11.9
		l-2.1-4.7L406.3,193.5z M817.1,408.7L815,412c-2.7,4.4-7.7,11.2-15.8,18.5c-12.8,11.4-36.4,26.4-76.3,33.2l-4.3,0.7l-1.7,0.3
		l-1-1.4l-2.6-3.5l-40.2-55.9L670,410c-3.9,7.5-9,22.6-11.8,51.8c-3,31.9-2.6,73.8,1.2,124.7c5,67.1,15.6,139.5,27.6,188.9l1.7,6.9
		l0.7,2.8l-2.8,0.6l-7,1.6c-22.8,5.1-76.5,13.8-179.8,13.8c-110.5,0-165.6-10.5-179.8-13.7l-7-1.6l-2.8-0.6l0.7-2.8l1.7-6.9
		c12-49.4,22.6-121.8,27.6-188.9c3.8-50.9,4.3-92.9,1.2-124.7c-2.8-29.2-8-44.3-11.8-51.8l-3.1-6.1l-40.2,55.9l-2.6,3.5l-1,1.4
		l-1.7-0.3l-4.3-0.7c-61-10.4-84.8-39.6-92.2-51.7l-2-3.3l-0.8-1.3l0.7-1.4l1.8-3.5c7-13.8,68.9-135.3,97.8-154.9
		c23.4-15.9,73.4-38.9,101.1-51.1l6.4-2.8l2.6-1.1l1.1,2.6l2.8,6.5c7,16.1,21.2,47.8,36.8,79.2c20.3,40.8,36.3,67.8,49,82.3
		c10.4,12,15.4,12,18.1,12s7.7,0,18.1-12c12.6-14.5,28.7-41.5,49-82.3c15.5-31.1,29.7-63,36.8-79.2l2.8-6.5l1.1-2.6l2.6,1.1l6.4,2.8
		c27.7,12.3,77.7,35.2,101.1,51.1c28.9,19.6,90.8,141.1,97.8,154.9l1.8,3.5l0.7,1.4L817.1,408.7z"/>
</g>
</svg>
