<?xml version="1.0" encoding="utf-8"?>
<!-- Generator: Adobe Illustrator 22.0.1, SVG Export Plug-In . SVG Version: 6.00 Build 0)  -->
<svg version="1.1" id="Layer_1" xmlns="http://www.w3.org/2000/svg" xmlns:xlink="http://www.w3.org/1999/xlink" x="0px" y="0px"
	 viewBox="0 0 1000 1000" style="enable-background:new 0 0 1000 1000;" xml:space="preserve">
<style type="text/css">
	.st0{fill:#B7B7B7;}
</style>
<path class="st0" d="M747.2,717.7l-31.7-352.6c-2.1-27.3-17.7-51.3-41.8-64.2l-29.2-15.6l0-1.6c-0.2-8.7-1.3-31.9-8-59.2l-0.1-0.3
	c0-0.1-0.1-0.3-0.1-0.4c-1.6-6.1-5.6-11.4-11.9-15.9c-23.3-16.5-50.3-27.4-80.4-32.3c-21.5-3.5-60.7-3.5-82.2,0
	c-30.1,4.9-57.1,15.8-80.4,32.3c-6.2,4.4-10.2,9.6-11.8,15.6l0,0.1c-0.1,0.2-0.1,0.4-0.2,0.7l0,0.2c-6.7,27.3-7.8,50.4-7.9,59.1
	l0,1.6l-29.2,15.6c-24.1,12.9-39.7,36.8-41.8,64l-31.7,352.8c-0.7,9,1,18,4.8,26.2l5.2,11l-1.3,27.9c-0.1,2,1.3,3.9,3.3,4.3
	l39.7,8.8c1.1,0.2,2.3,0,3.2-0.6c1-0.6,1.6-1.6,1.8-2.7l5.5-28.2l0.5-0.6c3.7-4,6.7-8.5,9-13.4c2.6-5.5,4.2-11.4,4.7-17.5
	l16.4-149.1l5.6,0.3c0.4,67.6-0.3,117.8-2.2,149.2c-0.7,11.2,4.3,22.1,13.2,29.1l1.1,0.8v44.3c0,2,1.3,3.7,3.3,4.1
	c42.5,9.5,86.3,14.3,130.4,14.3c44.1,0,87.9-4.8,130.4-14.3c2-0.4,3.3-2.1,3.3-4.1v-44.3l1.1-0.8c9-7,13.9-17.8,13.2-29
	c-1.9-31.4-2.7-81.6-2.2-149.3l5.6-0.3l16.4,149c1,11.5,5.9,22.5,13.7,30.9l0.5,0.6l5.5,28.2c0.2,1.1,0.9,2.1,1.8,2.7
	c0.9,0.6,2.1,0.8,3.2,0.6l39.7-8.8c2-0.4,3.4-2.2,3.3-4.3l-1.3-27.9l5.2-11C746.2,735.9,747.9,726.8,747.2,717.7z M633.6,254.8
	c1.8,13.1,2.3,23.5,2.4,28.5l0,1.4l-1.2,0.9c-25.9,19.4-60.5,32.3-85.1,39.6l-20.4,6.1l18.1-11.2c9.5-5.9,18.4-11.7,26.5-17.3
	c26.4-18.4,44.7-34.9,54.5-49.2l4.1-6L633.6,254.8z M504.2,335.2l-1.3,0.7l-1.3-0.7c-10.6-5.7-38.2-20.8-65-39.4
	c-9.6-6.7-18.2-13.2-25.6-19.4c-7.4-6.2-13.7-12.2-18.8-17.8l-2.2-2.5l2.8-1.8c27.7-17.7,56.8-24.6,76.3-27.2
	c19.7-2.7,48.3-2.7,67.8,0c19.4,2.6,48.4,9.5,76.1,27.2l2.8,1.8l-2.2,2.5c-10.2,11.3-25.1,23.8-44.3,37.1
	C542.5,314.4,514.9,329.6,504.2,335.2z M377.5,226.4l0.1-0.4c1.1-4.2,4-7.9,8.6-11.2c20.5-14.6,44.5-24.6,71.3-29.7
	c25.9-5,65-5,90.8,0c26.7,5.2,50.6,15.2,71.1,29.7c4.7,3.3,7.6,7.1,8.7,11.2l0.1,0.6c1.3,5.7-0.7,12.6-5.8,20.5l-1.5,2.4l-2.4-1.5
	c-30-19.5-61.2-26.8-82.1-29.5c-17.9-2.3-49.4-2.3-67.3,0c-20.9,2.7-52.2,9.9-82.1,29.5l-2.4,1.5l-1.5-2.4
	C378.1,239.2,376.2,232.2,377.5,226.4z M369.8,283.2c0.1-5,0.6-15.3,2.4-28.5l1-7.3l4.1,6c9.7,14.3,28.1,30.8,54.5,49.2
	c8.1,5.6,17,11.5,26.5,17.3l18.1,11.2l-20.4-6.1c-24.6-7.3-59.3-20.2-85.1-39.6l-1.2-0.9L369.8,283.2z M307.9,786.8l-32-7.1l1-20.5
	l35.2,6.6L307.9,786.8z M628.2,804.2l-2.2,0.5c-40.3,8.6-81.6,12.9-123,12.9c-41.4,0-82.8-4.3-123-12.9l-2.2-0.5v-36.4l3.5,0.9
	c79.6,20.9,163.8,20.9,243.5,0l3.5-0.9V804.2z M697.9,786.8l-4.1-21.1l35.2-6.6l1,20.5L697.9,786.8z M734.7,740.4l-4.7,10l-39.7,7.5
	l-1.1-1.3c-5.8-6.9-9.3-15.4-10.1-24.4l-28.8-261.1c-0.2-2.2-2.2-3.9-4.4-3.7c-2.2,0.1-4,1.9-4,4.1c0,1.8-4.3,182.2,0.6,262.5
	c0.7,12.2-7.3,23.3-19.1,26.4C584,770.8,543.4,776,502.9,776s-81.1-5.2-120.5-15.6c-11.8-3.1-19.9-14.2-19.1-26.4
	c4.9-80.3,0.6-260.7,0.5-262.5c0-2.2-1.8-4-4-4.1c-2.2-0.1-4.1,1.5-4.4,3.7l-28.8,261c-0.5,5.2-1.8,10.2-4,14.8
	c-1.6,3.5-3.7,6.7-6.2,9.7l-1.1,1.2l-39.7-7.5l-4.7-10c-3.2-6.9-4.6-14.5-4.1-22l31.7-352.8c1.9-24.3,15.8-45.8,37.4-57.3l29.9-16
	l1.4,1.1c21.1,15.5,49.6,28.8,84.7,39.4c1.3,0.4,2.6,0.8,3.9,1.2l2,0.6v199c0,2.3,1.9,4.2,4.2,4.2c2.3,0,4.2-1.9,4.2-4.2V336.9
	l3.5,0.9c18.1,4.7,30.8,6.8,32.2,7c0.6,0.1,1.1,0.1,1.5,0c1.4-0.2,14.1-2.3,32.2-7l3.5-0.9v196.6c0,2.3,1.9,4.2,4.2,4.2
	c2.3,0,4.2-1.9,4.2-4.2v-199l2-0.6c1.3-0.4,2.6-0.8,3.9-1.2c35.1-10.6,63.6-23.9,84.7-39.4l1.4-1.1l29.9,16
	c21.5,11.5,35.5,33,37.4,57.4l31.7,352.6C739.4,726,737.9,733.6,734.7,740.4z"/>
</svg>
