<?xml version="1.0" encoding="utf-8"?>
<!-- Generator: Adobe Illustrator 22.0.1, SVG Export Plug-In . SVG Version: 6.00 Build 0)  -->
<svg version="1.1" id="Layer_1" xmlns="http://www.w3.org/2000/svg" xmlns:xlink="http://www.w3.org/1999/xlink" x="0px" y="0px"
	 viewBox="0 0 1000 1000" style="enable-background:new 0 0 1000 1000;" xml:space="preserve">
<style type="text/css">
	.st0{fill:#B7B7B7;}
</style>
<path class="st0" d="M823.9,763.7l-18.1-318.6c-1.8-31.1-27.5-55.4-58.7-55.4h-96.5v-20.5c0-8.7-7.1-15.8-15.8-15.8h-6.4l-0.3-2.6
	c-6.7-51.6-22.6-98.3-44.7-131.5c-24-36-53.6-55-85.7-55c-32,0-61.7,19-85.7,55c-22.1,33.1-38,79.8-44.7,131.5l-0.3,2.6h-6.3
	c-8.7,0-15.8,7.1-15.8,15.8v20.5h-96.5c-31.1,0-56.9,24.4-58.7,55.4l-18.1,318.6c-0.9,16.3,4.7,31.8,16,43.7
	c11.2,11.9,26.4,18.4,42.7,18.4h534.9c16.3,0,31.5-6.5,42.7-18.4C819.2,795.5,824.8,780,823.9,763.7z M624,370.7
	c1.6-1.9,2.9-4,3.8-6.4l0.7-2h6.4c3.8,0,6.8,3.1,6.8,6.8v20.5h-61.5v-20.5c0-3.8,3.1-6.8,6.8-6.8h3.4l0.7,2c2.7,7.8,10.1,13,18.3,13
	C615,377.3,620.3,374.9,624,370.7z M409.6,353.3l-3.2-0.2l0.5-3.2c5-34.6,14.5-66.2,27.4-91.6c17.9-35.1,41-55.2,63.5-55.2
	c22.5,0,45.7,20.1,63.5,55.2c12.9,25.3,22.4,57,27.4,91.6l0.5,3.2l-3.2,0.2c-8.3,0.6-14.8,7.5-14.8,15.8v20.5H424.4v-20.5
	C424.4,360.8,417.9,353.9,409.6,353.3z M375.7,356.6c12.8-108,63-183.4,122.1-183.4c28.9,0,56,17.6,78.2,51
	c22.1,33.2,37.7,80.2,43.9,132.4c0.3,3-0.6,5.9-2.6,8.2c-2,2.3-4.8,3.5-7.9,3.5c-5.3,0-9.8-4-10.4-9.3
	c-4.7-39.6-14.9-75.9-29.7-104.8c-19.5-38.2-45.5-60.1-71.5-60.1s-52.1,21.9-71.5,60.1c-14.7,28.9-25,65.1-29.7,104.8
	c-0.6,5.3-5.1,9.3-10.4,9.3c-3,0-5.8-1.3-7.9-3.5C376.3,362.5,375.3,359.6,375.7,356.6z M353.9,369.1c0-3.8,3.1-6.8,6.8-6.8h6.4
	l0.7,2c0.9,2.4,2.1,4.6,3.8,6.5c3.7,4.2,9,6.5,14.6,6.5c8.2,0,15.6-5.2,18.3-13l0.7-2h3.4c3.8,0,6.8,3.1,6.8,6.8v20.5h-61.5V369.1z
	 M365.7,816.8H230.3c-13.8,0-26.7-5.5-36.2-15.6c-9.5-10.1-14.3-23.2-13.5-37l18.1-318.6c1.5-26.3,23.3-47,49.7-47h117.2V816.8z
	 M394.6,816.8h-20V398.6h20V816.8z M592,816.8H403.6V398.6H592V816.8z M620.9,816.8h-20V398.6h20V816.8z M801.4,801.2
	c-4.8,5-10.3,8.9-16.5,11.6s-12.8,4-19.7,4H629.9V398.6h117.2c26.4,0,48.2,20.6,49.7,47l18.1,318.6
	C815.7,778,810.9,791.2,801.4,801.2z"/>
<g>
	<path class="st0" d="M543.3,411.6h-90.9c-2.5,0-4.5,2-4.5,4.5v25c0,2.5,2,4.5,4.5,4.5h90.9c2.5,0,4.5-2,4.5-4.5v-25
		C547.8,413.6,545.7,411.6,543.3,411.6z M538.8,436.6h-82v-16h82V436.6z"/>
</g>
</svg>
