<?xml version="1.0" encoding="utf-8"?>
<!-- Generator: Adobe Illustrator 22.0.1, SVG Export Plug-In . SVG Version: 6.00 Build 0)  -->
<svg version="1.1" id="Layer_1" xmlns="http://www.w3.org/2000/svg" xmlns:xlink="http://www.w3.org/1999/xlink" x="0px" y="0px"
	 viewBox="0 0 1000 1000" style="enable-background:new 0 0 1000 1000;" xml:space="preserve">
<style type="text/css">
	.st0{fill:#B7B7B7;}
</style>
<g>
	<path class="st0" d="M826.8,287.2c-0.4-1.3-1.3-2.4-2.5-3.1l-136.7-73.1c-0.5-0.3-1-0.4-1.5-0.5c-0.3-0.1-0.7-0.1-1-0.1H314.9
		c-1,0-2,0.3-2.7,0.8l-136.4,73c-1.2,0.7-2.1,1.8-2.5,3.1c-0.4,1.3-0.3,2.8,0.4,4l62.8,117.4c0.7,1.2,1.8,2.1,3.1,2.5
		c0.4,0.1,0.8,0.2,1.3,0.2l0.2,0c0.1,0,0.2,0,0.2,0c0.3,0,0.5,0,0.9-0.1c0.1,0,0.2,0,0.3-0.1c0.4-0.1,0.8-0.3,1.1-0.4l66.1-35.4v411
		c0,2.9,2.4,5.2,5.2,5.2H685c2.9,0,5.2-2.4,5.2-5.2v-411l66.2,35.4c0.3,0.2,0.7,0.3,1.1,0.4c0.1,0,0.2,0,0.3,0.1
		c0.3,0.1,0.5,0.1,0.8,0.1l0.2,0c0.1,0,0.2,0,0.2,0c0.5,0,1-0.1,1.4-0.2c1.3-0.4,2.4-1.3,3.1-2.5l62.8-117.4
		C827,289.9,827.2,288.5,826.8,287.2z M261.3,389.3l-18.1,9.7l-57.9-108.1l18.1-9.7L261.3,389.3z M488.8,228.5v-7.7h22.3v7.7H488.8z
		 M679.8,470.6v19.9H320.1v-19.9H679.8z M679.8,501v280H320.1V501H679.8z M483.6,239h32.8c2.9,0,5.3-2.4,5.3-5.2v-13H577l-77,77
		l-77-77h55.3v13C478.3,236.7,480.7,239,483.6,239z M679.8,366.5v63.2H320.1v-63.2c0-1.8-1-3.6-2.6-4.5c-1.6-0.9-3.6-1-5.2-0.1
		l-41.9,22.4l-57.9-108.1l103.5-55.4h92l88.1,88.1c2,2,5.4,2,7.4,0l88.1-88.1h92l103.5,55.4l-57.9,108.1l-41.9-22.4
		c-1.6-0.9-3.6-0.8-5.2,0.1C680.8,362.9,679.8,364.7,679.8,366.5z M679.8,440.2v19.9H320.1v-19.9H679.8z M814.6,290.8l-57.9,108.1
		l-18.1-9.7l57.9-108.1L814.6,290.8z"/>
</g>
</svg>
