<svg width="141" height="147" viewBox="0 0 141 147" fill="none" xmlns="http://www.w3.org/2000/svg">
<path d="M15.9763 0H14.7863C14.0363 0 13.2763 0.149995 12.5463 0.259995L11.6563 0.389999C10.7563 0.509999 9.85632 0.670003 9.17632 0.800003L8.34631 0.940002C7.76449 1.02098 7.18709 1.13112 6.61631 1.27C6.25631 1.37 5.88631 1.49 5.50631 1.63C5.06292 1.7924 4.62892 1.97935 4.20632 2.19C3.8498 2.41507 3.51502 2.67283 3.20632 2.95999L3.10632 3.05L3.00631 3.14C2.62457 3.48961 2.28857 3.88608 2.00631 4.31999C1.8595 4.53831 1.73233 4.76921 1.62631 5.00999L1.37631 5.23C0.756985 5.85408 0.399296 6.69106 0.376314 7.56999C0.246314 9.23999 0.096313 11.46 0.016313 13.72C0.016313 14.39 0.016313 15.07 0.016313 15.72C0.016313 15.98 0.016313 16.23 0.016313 16.48C0.016313 17.57 0.016313 18.66 0.016313 19.75C0.016313 21.16 0.016313 22.59 0.016313 23.98C0.016313 26.39 -0.0536851 28.87 0.0963149 31.31C0.172417 32.5143 0.31934 33.713 0.536317 34.9C0.710294 35.8387 1.04884 36.7392 1.53632 37.56C2.43594 38.9507 3.75187 40.0216 5.29631 40.62C6.04849 40.9559 6.82799 41.2269 7.62631 41.43C8.28631 41.59 8.96631 41.69 9.62631 41.79C10.5663 41.92 11.5163 42.02 12.3263 42.1C13.1363 42.18 14.0563 42.25 15.0163 42.3C15.9763 42.35 16.6763 42.37 17.3963 42.37C18.5397 42.3767 19.6823 42.3065 20.8163 42.16L21.2663 42.11C21.8374 42.0459 22.4048 41.9525 22.9663 41.83C23.4665 41.7152 23.9604 41.5751 24.4463 41.41C25.5131 41.0531 26.5497 40.6117 27.5463 40.09C27.9123 39.8947 28.2663 39.6777 28.6063 39.44C29.1876 39.0722 29.7304 38.6467 30.2263 38.17C31.0402 37.3852 31.7163 36.4691 32.2263 35.46C32.8614 34.1946 33.3222 32.849 33.5963 31.46C33.8344 30.2333 34.0079 28.9949 34.1163 27.75C34.2863 26.05 34.3163 24.31 34.3563 22.62V22.09C34.3563 20.01 34.4163 18.09 34.4163 16.2C34.4218 14.0924 34.2006 11.9903 33.7563 9.92999C33.5024 8.80968 33.1199 7.72248 32.6163 6.69C32.1988 5.83855 31.6138 5.08008 30.8963 4.45999C30.2876 3.9351 29.6158 3.48832 28.8963 3.13C27.8687 2.66528 26.8134 2.26451 25.7363 1.92999L25.2563 1.77C24.6463 1.57 24.0063 1.35999 23.3763 1.17999C21.4171 0.610223 19.408 0.228498 17.3763 0.0399933C17.0063 0.0199933 16.4863 0 15.9763 0Z" fill="#03A9F4"/>
<path d="M72.7464 25.23C73.3331 25.23 73.9231 25.23 74.5164 25.23C75.9492 25.3013 77.3738 25.4886 78.7764 25.79C79.3699 25.9144 79.952 26.0883 80.5164 26.31C81.2705 26.5712 81.9867 26.931 82.6464 27.38C83.3875 27.8576 83.9582 28.5578 84.2764 29.38C84.4774 29.8108 84.6478 30.2552 84.7864 30.71C84.9691 31.2986 85.1062 31.9003 85.1964 32.51C85.5915 35.3149 85.712 38.1517 85.5564 40.98C85.5564 42.31 85.4964 43.65 85.4364 44.98C85.4014 46.4656 85.2812 47.9481 85.0764 49.42C85.0219 49.9529 84.9009 50.477 84.7164 50.98C84.5625 51.4105 84.3752 51.8285 84.1564 52.23C83.9365 52.6131 83.6857 52.9777 83.4064 53.32C83.164 53.6408 82.8855 53.9327 82.5764 54.19C82.2622 54.4347 81.9276 54.6522 81.5764 54.84C81.3251 54.975 81.0644 55.092 80.7964 55.19C80.5002 55.3159 80.1962 55.4228 79.8864 55.51C79.5844 55.5967 79.2771 55.6635 78.9664 55.71C78.4964 55.77 78.0364 55.85 77.5664 55.88C76.2264 55.97 74.8864 55.99 73.5664 55.95L71.4664 55.86L70.4664 55.77C70.0031 55.7286 69.5424 55.6618 69.0864 55.57C68.6901 55.5068 68.3014 55.4029 67.9264 55.26C67.4241 55.0747 66.9444 54.8331 66.4964 54.54C66.0189 54.2142 65.6082 53.8001 65.2864 53.32C64.9907 52.8451 64.7492 52.3387 64.5664 51.81C64.3094 51.0398 64.1515 50.24 64.0964 49.43C63.9631 48.1947 63.9096 46.9521 63.9364 45.71C63.9364 42.96 64.0464 40.2 64.0864 37.45C64.0864 36.1166 64.0864 34.7833 64.0864 33.45V32.92C64.0282 32.3754 64.0048 31.8276 64.0164 31.28C64.0164 31.16 64.0164 31.04 64.0164 30.92C64.0164 30.41 64.0164 29.92 63.9464 29.4C63.9353 29.1148 63.9889 28.8308 64.1032 28.5693C64.2175 28.3077 64.3895 28.0755 64.6064 27.89C64.6898 27.7255 64.7868 27.5683 64.8964 27.42C65.2764 26.8688 65.7888 26.4218 66.3864 26.12C66.7564 25.9326 67.141 25.7754 67.5364 25.65C67.8228 25.5737 68.1132 25.5136 68.4064 25.47C69.1702 25.3418 69.9421 25.2682 70.7164 25.25L72.7464 25.23ZM69.1764 28.98C68.9462 29.0213 68.719 29.0781 68.4964 29.15L68.2764 29.28L68.2064 29.35V29.4C68.2864 30.67 68.3564 31.94 68.3864 33.22C68.4664 35.8867 68.5331 38.5733 68.5864 41.28C68.5864 43.85 68.5864 46.41 68.9364 48.96C69.0198 49.5471 69.1537 50.1259 69.3364 50.69V50.76L69.5364 50.87C70.0069 51.0251 70.4882 51.1454 70.9764 51.23C72.1964 51.37 73.4264 51.46 74.6564 51.53C75.9116 51.615 77.1712 51.615 78.4264 51.53C78.8614 51.4555 79.2896 51.3451 79.7064 51.2L80.0164 51.02C80.1472 50.8973 80.2708 50.7671 80.3864 50.63C80.5353 50.4024 80.6689 50.1652 80.7864 49.92C80.8861 49.6426 80.9663 49.3586 81.0264 49.07C81.2362 46.5892 81.3163 44.0991 81.2664 41.61C81.325 38.9844 81.2482 36.3576 81.0364 33.74C80.9142 32.825 80.7032 31.9241 80.4064 31.05L80.3064 30.88L80.1464 30.71C79.8256 30.5077 79.4915 30.3273 79.1464 30.17C78.9064 30.08 78.6764 29.99 78.4264 29.92C78.1764 29.85 77.6664 29.71 77.2864 29.62C76.5683 29.4364 75.8405 29.2928 75.1064 29.19C74.1064 29.07 73.1764 28.97 72.2064 28.91L70.4864 28.92C70.0489 28.9116 69.6113 28.9316 69.1764 28.98Z" fill="#03A9F4"/>
<path d="M102.237 92.9199C103.527 92.9199 104.827 92.9199 106.117 93.0099C106.767 93.0099 107.407 93.0999 108.057 93.0999C108.707 93.0999 109.257 93.0999 109.857 93.0999C111.29 93.1374 112.717 93.3115 114.117 93.6199C115.357 93.8999 116.607 94.1399 117.847 94.4399C119.413 94.687 120.911 95.2556 122.247 96.1099C122.689 96.4197 123.098 96.775 123.467 97.1699C123.867 97.5886 124.204 98.0637 124.467 98.5799C124.827 99.3008 125.118 100.054 125.337 100.83C125.677 102.04 125.977 103.26 126.287 104.48C126.937 106.98 127.347 109.48 127.747 112.08C127.957 113.39 128.177 114.7 128.357 116.02C128.577 117.59 128.717 119.17 128.807 120.76C128.947 123.38 129.067 126 128.987 128.62C128.987 130.08 128.877 131.54 128.797 133C128.707 134.548 128.537 136.09 128.287 137.62C128.14 138.504 127.877 139.364 127.507 140.18C127.207 140.8 126.827 141.379 126.377 141.9C125.863 142.501 125.255 143.014 124.577 143.42C123.99 143.77 123.378 144.078 122.747 144.34H122.677L122.347 144.48L122.207 144.54C121.597 144.79 120.977 145.04 120.347 145.26C119.717 145.48 119.097 145.66 118.467 145.84L117.287 146.17C116.471 146.368 115.642 146.512 114.807 146.6C114.187 146.68 113.547 146.74 112.917 146.79C110.158 146.982 107.391 147.028 104.627 146.93C101.742 146.885 98.8657 146.604 96.0268 146.09C94.7492 145.852 93.4869 145.538 92.2468 145.15C91.4475 144.901 90.6629 144.607 89.8968 144.27C89.3158 144.031 88.7679 143.719 88.2668 143.34C87.6145 142.893 87.0599 142.318 86.6368 141.65C86.3468 141.152 86.1344 140.612 86.0068 140.05C85.8521 139.241 85.7519 138.422 85.7068 137.6C85.6268 136.33 85.5968 135.06 85.6368 133.79C85.8268 128.27 85.9168 122.74 86.0268 117.22C86.0968 113.8 86.1668 110.38 86.1968 106.96C86.1058 106.858 86.0253 106.748 85.9568 106.63C85.7778 106.327 85.6845 105.982 85.6868 105.63C85.6118 104.338 85.6118 103.042 85.6868 101.75C85.6555 100.235 85.963 98.7313 86.5868 97.3499C87.0321 96.4475 87.726 95.6912 88.5868 95.1699C89.2226 94.8342 89.8932 94.5693 90.5868 94.3799C91.1768 94.2099 91.7668 93.9999 92.3768 93.8699C92.9868 93.7399 93.5468 93.5999 94.1368 93.5099C94.7268 93.4199 95.3168 93.3199 95.9068 93.2199C96.6768 93.0999 97.4468 93.0199 98.2268 92.9499C99.4868 92.9199 100.877 92.9199 102.237 92.9199ZM94.8168 97.5999L93.2968 97.8199L93.6268 97.7699C93.0368 97.8799 92.4568 98.0199 91.8768 98.1799C91.4768 98.2899 91.0768 98.3899 90.6868 98.5299L90.3268 98.7199L90.2268 98.8299C90.1068 99.0099 89.9968 99.1799 89.8868 99.3699C89.7768 99.5599 89.7968 99.7299 89.7568 99.9199C89.6768 100.76 89.6768 101.62 89.6668 102.47C89.6568 103.32 89.6668 103.89 89.6668 104.6V105.22C89.7268 110.68 89.8468 116.15 89.9668 121.61C90.0268 124.44 90.0768 127.26 90.1468 130.08C90.2068 132.54 90.2768 135 90.5668 137.44C90.6348 137.995 90.7485 138.544 90.9068 139.08V139.17L91.1668 139.42C91.5308 139.661 91.9118 139.875 92.3068 140.06C93.3363 140.455 94.3881 140.789 95.4568 141.06C96.0568 141.21 96.6568 141.36 97.2668 141.47C97.8768 141.58 98.6768 141.71 99.3868 141.81C102.044 142.09 104.715 142.221 107.387 142.2C108.687 142.2 109.977 142.2 111.267 142.2C112.557 142.2 113.637 142.05 114.817 141.91C115.975 141.689 117.118 141.391 118.237 141.02C118.977 140.8 119.697 140.53 120.417 140.24L120.747 140.09C121.259 139.858 121.751 139.584 122.217 139.27L122.607 138.9C122.717 138.73 122.817 138.55 122.917 138.37C123.062 137.929 123.172 137.478 123.247 137.02C123.375 135.774 123.438 134.522 123.437 133.27C123.437 131.81 123.437 130.34 123.437 128.88C123.437 127.42 123.377 126.15 123.307 124.79C123.167 122.28 123.047 119.79 122.737 117.29C122.497 115.55 122.217 113.82 121.987 112.09C121.757 110.36 121.427 108.38 120.987 106.53C120.787 105.59 120.587 104.64 120.357 103.7C120.127 102.76 119.967 102.09 119.697 101.31C119.597 101.13 119.497 100.95 119.387 100.78C119.25 100.62 119.103 100.47 118.947 100.33C118.789 100.227 118.626 100.133 118.457 100.05C117.239 99.6072 115.997 99.2332 114.737 98.9299C114.057 98.7599 113.377 98.5799 112.737 98.3899C112.188 98.2366 111.63 98.1164 111.067 98.0299C110.547 97.9699 110.067 97.9299 109.507 97.8899C108.947 97.8499 108.357 97.8899 107.777 97.8099L105.927 97.6699C104.567 97.5799 103.197 97.4999 101.827 97.4399C100.457 97.3799 99.1968 97.3099 97.8868 97.3599C96.8768 97.3499 95.8468 97.4699 94.8168 97.5999Z" fill="#99DDC6"/>
<path d="M112.377 35.3799H113.377C114.717 35.3799 116.057 35.4699 117.377 35.5499C118.697 35.6299 120.097 35.7199 121.457 35.7799C122.817 35.8399 124.027 35.9899 125.317 36.0699C126.607 36.1499 127.957 36.2799 129.317 36.3699C130.78 36.4195 132.23 36.6479 133.637 37.0499C134.376 37.3013 135.092 37.6158 135.777 37.9899C136.562 38.3874 137.262 38.9343 137.837 39.5999C138.321 40.1749 138.727 40.8102 139.047 41.4899C139.357 42.2199 139.637 42.9499 139.877 43.7099C140.275 44.9187 140.567 46.1601 140.747 47.4199C140.962 48.9309 141.083 50.4538 141.107 51.9799C141.106 53.23 141.029 54.479 140.877 55.7199C140.727 57.2199 140.617 58.7199 140.347 60.2099C140.129 61.5172 139.795 62.8023 139.347 64.0499C139.081 64.7765 138.746 65.4763 138.347 66.1399C138.155 66.4271 137.948 66.7042 137.727 66.9699C137.6 67.1531 137.456 67.3239 137.297 67.4799C136.874 67.8658 136.408 68.2014 135.907 68.4799C134.459 69.2018 132.874 69.6107 131.257 69.6799C129.927 69.8299 128.597 69.9399 127.257 70.0199C125.917 70.0999 124.587 70.0999 123.257 70.1099C121.927 70.1199 120.607 70.1099 119.257 70.1099C117.907 70.1099 116.447 70.1099 115.037 70.0299C113.627 69.9499 112.487 69.8499 111.217 69.7599C109.947 69.6699 108.567 69.5399 107.217 69.3799C106.307 69.2699 105.397 69.1599 104.497 68.9799C103.822 68.8493 103.155 68.6824 102.497 68.4799C100.765 68.0808 99.1869 67.184 97.9573 65.8999C97.6099 65.4994 97.2955 65.0713 97.0173 64.6199C96.743 64.1485 96.512 63.6531 96.3273 63.1399C96.0429 62.2943 95.8583 61.4183 95.7773 60.5299C95.6523 59.2763 95.6523 58.0134 95.7773 56.7599C95.8773 55.3599 96.0573 53.9599 96.2473 52.5699L96.6373 49.6699C96.8273 48.0499 97.0073 46.4399 97.2773 44.8399C97.3904 44.2008 97.5441 43.5695 97.7373 42.9499C97.9182 42.3571 98.1352 41.776 98.3873 41.2099C98.6701 40.6384 99.0228 40.1043 99.4373 39.6199C99.9408 38.9845 100.534 38.4254 101.197 37.9599L101.487 37.9199L101.677 37.7999C102.237 37.4721 102.822 37.1911 103.427 36.9599C104.902 36.296 106.501 35.9551 108.117 35.9599C108.405 35.8011 108.729 35.7185 109.057 35.7199H109.347C110.027 35.6299 110.697 35.5499 111.347 35.5099C111.717 35.3899 112.047 35.3799 112.377 35.3799ZM108.757 40.8499C108.562 40.8726 108.369 40.906 108.177 40.9499C107.735 41.048 107.301 41.1784 106.877 41.3399C106.217 41.6199 105.582 41.9544 104.977 42.3399L104.777 42.4699C104.64 42.5991 104.509 42.736 104.387 42.8799C104.205 43.145 104.041 43.4223 103.897 43.7099C103.632 44.5498 103.431 45.4091 103.297 46.2799C102.997 48.6999 102.807 51.1399 102.507 53.5599C102.347 54.9099 102.227 56.2599 102.157 57.6199C102.087 58.6754 102.087 59.7344 102.157 60.7899C102.227 61.0799 102.297 61.3699 102.387 61.6599C102.488 61.8488 102.598 62.0324 102.717 62.2099L102.857 62.3599C103.144 62.5409 103.441 62.7045 103.747 62.8499C104.542 63.1601 105.357 63.4141 106.187 63.6099C107.077 63.8199 107.997 63.9399 108.907 64.0799C110.007 64.2199 111.107 64.3299 112.207 64.4699C113.577 64.6499 114.937 64.7599 116.317 64.8299C119.027 64.9799 121.747 65.0099 124.467 65.0499C126.942 65.0985 129.418 64.9815 131.877 64.6999C132.336 64.6335 132.788 64.5264 133.227 64.3799L133.647 64.1399L133.837 63.9399C134.112 63.5199 134.353 63.0785 134.557 62.6199C134.947 61.3884 135.238 60.1277 135.427 58.8499C135.527 58.0299 135.597 57.2099 135.657 56.3899C135.717 55.5699 135.837 54.5999 135.907 53.6999C135.977 52.7999 135.987 51.8399 135.977 50.8999C135.967 49.9599 135.927 49.0899 135.827 48.1899C135.719 47.3112 135.558 46.4397 135.347 45.5799C135.14 44.7005 134.886 43.8326 134.587 42.9799C134.48 42.7449 134.356 42.5177 134.217 42.2999L134.127 42.2099C133.85 42.031 133.563 41.8675 133.267 41.7199C132.674 41.4985 132.061 41.3312 131.437 41.2199C130.437 41.1299 129.437 41.1099 128.517 41.0399C127.397 40.9499 126.277 40.9099 125.157 40.8199C123.847 40.7299 122.537 40.6199 121.227 40.5599C119.917 40.4999 118.717 40.4399 117.457 40.3599H116.837C114.127 40.5099 111.427 40.5599 108.757 40.8499Z" fill="#4D4962"/>
<path d="M68.9963 80.08C68.9963 80.33 68.9963 80.5699 68.9963 80.8199C68.9963 81.8199 68.9363 82.8199 68.8763 83.8199C68.8163 84.8199 68.7463 85.88 68.6963 86.91C68.6463 87.94 68.5463 88.85 68.4863 89.83C68.4263 90.81 68.3263 91.83 68.2463 92.83C68.2118 93.9401 68.0405 95.0417 67.7363 96.11C67.5494 96.6672 67.3117 97.2061 67.0263 97.72C66.7305 98.3207 66.3154 98.8549 65.8063 99.2899C65.3741 99.6554 64.8927 99.9583 64.3763 100.19C63.828 100.433 63.2672 100.646 62.6963 100.83C61.7802 101.13 60.8401 101.351 59.8863 101.49C58.7428 101.65 57.5907 101.74 56.4363 101.76C55.487 101.755 54.5387 101.695 53.5963 101.58C52.4663 101.47 51.3263 101.39 50.2063 101.18C49.2145 101.014 48.2403 100.756 47.2963 100.41C46.7429 100.201 46.2105 99.9396 45.7063 99.63C45.4863 99.49 45.2863 99.32 45.0863 99.17C44.9493 99.0649 44.8191 98.9513 44.6963 98.83C44.3947 98.5129 44.1328 98.1603 43.9163 97.78C43.3667 96.6839 43.0533 95.4847 42.9963 94.2599C42.8863 93.2599 42.8063 92.2599 42.7463 91.2599C42.6863 90.2599 42.6863 89.2599 42.6763 88.2599C42.6663 87.2599 42.6763 86.2599 42.6763 85.2599C42.6763 84.2599 42.6763 83.13 42.7263 82.06C42.7763 80.99 42.8663 80.14 42.9363 79.17C43.0063 78.2 43.0963 77.17 43.2263 76.17C43.3063 75.48 43.3863 74.79 43.5263 74.11C43.6271 73.6038 43.7539 73.1031 43.9063 72.61C44.2151 71.2895 44.9116 70.0915 45.9063 69.17C46.2195 68.9062 46.554 68.6687 46.9063 68.4599C47.2638 68.2543 47.6385 68.0803 48.0263 67.94C48.6732 67.7183 49.3449 67.5772 50.0263 67.52C50.9739 67.425 51.9287 67.425 52.8763 67.52C53.9463 67.59 54.9963 67.73 56.0563 67.88L58.2463 68.17C59.4663 68.32 60.6963 68.4499 61.9063 68.6499C62.389 68.7406 62.8663 68.8575 63.3363 69C63.7861 69.1396 64.2269 69.3066 64.6563 69.5C65.0882 69.7112 65.4915 69.9767 65.8563 70.2899C66.336 70.6726 66.7601 71.1203 67.1163 71.6199L67.2363 71.81L67.3263 71.95C67.5715 72.3738 67.7854 72.815 67.9663 73.27C68.4673 74.3899 68.7263 75.603 68.7263 76.83C68.8496 77.05 68.9149 77.2977 68.9163 77.55V77.77C68.9863 78.28 69.0463 78.77 69.0763 79.31C68.9963 79.58 68.9963 79.83 68.9963 80.08ZM64.8663 77.34C64.8663 77.19 64.8663 77.0399 64.7863 76.8999C64.7082 76.5604 64.608 76.2264 64.4863 75.8999C64.2642 75.4004 64.0034 74.9189 63.7063 74.4599L63.5963 74.31C63.504 74.2026 63.4037 74.1023 63.2963 74.0099C63.0956 73.8714 62.8851 73.7478 62.6663 73.64C62.0116 73.4385 61.3432 73.2848 60.6663 73.1799C58.8363 72.9599 56.9963 72.81 55.1563 72.59C54.1563 72.47 53.1563 72.3799 52.0863 72.3199C51.2871 72.27 50.4855 72.27 49.6863 72.3199C49.4625 72.3648 49.2419 72.425 49.0263 72.5C48.8798 72.5679 48.7393 72.6482 48.6063 72.74L48.4963 72.8499C48.3579 73.0664 48.231 73.2901 48.1163 73.52C47.8844 74.1229 47.6939 74.741 47.5463 75.3699C47.3863 76.0499 47.2963 76.7399 47.1863 77.3699C47.0863 78.2099 46.9963 79.05 46.8863 79.88C46.7563 80.88 46.6763 81.95 46.6163 82.99C46.5063 85.04 46.4863 87.1 46.4563 89.16C46.4179 91.0337 46.5048 92.9078 46.7163 94.77C46.7717 95.1097 46.8553 95.4442 46.9663 95.77C47.0188 95.8775 47.0789 95.9811 47.1463 96.08L47.2963 96.2299C47.6153 96.4353 47.9496 96.6159 48.2963 96.77C49.2304 97.0663 50.1868 97.287 51.1563 97.4299C51.7763 97.4999 52.3963 97.5599 53.0163 97.5999C53.6363 97.6399 54.3663 97.7399 55.0163 97.7899C55.6663 97.8399 56.4263 97.8499 57.1363 97.7899C57.8244 97.7882 58.512 97.7515 59.1963 97.6799C59.8698 97.6018 60.5378 97.4815 61.1963 97.3199C61.8729 97.1627 62.5406 96.9691 63.1963 96.74C63.3747 96.66 63.5483 96.5698 63.7163 96.47L63.7763 96.3999C63.913 96.1912 64.0366 95.9741 64.1463 95.75C64.3172 95.2964 64.4444 94.8276 64.5263 94.3499C64.5963 93.6199 64.6063 92.8799 64.6663 92.1499C64.7263 91.4199 64.7663 90.4499 64.8263 89.5999C64.8863 88.7499 64.9863 87.5999 65.0263 86.5999C65.0663 85.5999 65.1163 84.69 65.1763 83.74C65.1763 83.58 65.1763 83.43 65.1763 83.27C65.1163 81.4 65.0763 79.36 64.8663 77.34Z" fill="#4D4962"/>
</svg>
